<mxfile host="app.diagrams.net" agent="Mozilla/5.0 (Windows NT 10.0; Win64; x64) AppleWebKit/537.36 (KHTML, like Gecko) Chrome/132.0.0.0 Safari/537.36 OPR/117.0.0.0" version="26.2.12" pages="5">
  <diagram id="C5RBs43oDa-KdzZeNtuy" name="flowchart đặt phòng">
    <mxGraphModel dx="1387" dy="797" grid="0" gridSize="10" guides="1" tooltips="1" connect="1" arrows="1" fold="1" page="0" pageScale="1" pageWidth="827" pageHeight="1169" math="0" shadow="0">
      <root>
        <mxCell id="WIyWlLk6GJQsqaUBKTNV-0" />
        <mxCell id="WIyWlLk6GJQsqaUBKTNV-1" parent="WIyWlLk6GJQsqaUBKTNV-0" />
        <mxCell id="WIyWlLk6GJQsqaUBKTNV-10" value="Đã đăng nhập" style="rhombus;whiteSpace=wrap;html=1;shadow=0;fontFamily=Helvetica;fontSize=12;align=center;strokeWidth=1;spacing=6;spacingTop=-4;" parent="WIyWlLk6GJQsqaUBKTNV-1" vertex="1">
          <mxGeometry x="170" y="301" width="100" height="80" as="geometry" />
        </mxCell>
        <mxCell id="WIyWlLk6GJQsqaUBKTNV-11" value="Chọn nút đặt phòng&lt;div&gt;(Booking)&lt;/div&gt;" style="rounded=1;whiteSpace=wrap;html=1;fontSize=12;glass=0;strokeWidth=1;shadow=0;" parent="WIyWlLk6GJQsqaUBKTNV-1" vertex="1">
          <mxGeometry x="160" y="198" width="120" height="40" as="geometry" />
        </mxCell>
        <mxCell id="tpvj4CS7-NAzmeMGIOc2-4" value="" style="ellipse;html=1;shape=startState;fillColor=#000000;strokeColor=#ff0000;" vertex="1" parent="WIyWlLk6GJQsqaUBKTNV-1">
          <mxGeometry x="213" y="94" width="30" height="30" as="geometry" />
        </mxCell>
        <mxCell id="tpvj4CS7-NAzmeMGIOc2-5" value="" style="edgeStyle=orthogonalEdgeStyle;html=1;verticalAlign=bottom;endArrow=open;endSize=8;strokeColor=#ff0000;rounded=0;entryX=0.567;entryY=0;entryDx=0;entryDy=0;entryPerimeter=0;" edge="1" source="tpvj4CS7-NAzmeMGIOc2-4" parent="WIyWlLk6GJQsqaUBKTNV-1" target="WIyWlLk6GJQsqaUBKTNV-11">
          <mxGeometry relative="1" as="geometry">
            <mxPoint x="241" y="201" as="targetPoint" />
          </mxGeometry>
        </mxCell>
        <mxCell id="tpvj4CS7-NAzmeMGIOc2-6" value="" style="ellipse;html=1;shape=endState;fillColor=#000000;strokeColor=#ff0000;" vertex="1" parent="WIyWlLk6GJQsqaUBKTNV-1">
          <mxGeometry x="234" y="547" width="30" height="30" as="geometry" />
        </mxCell>
        <mxCell id="tpvj4CS7-NAzmeMGIOc2-7" value="Xem chi tiết phòng" style="rounded=1;whiteSpace=wrap;html=1;fontSize=12;glass=0;strokeWidth=1;shadow=0;" vertex="1" parent="WIyWlLk6GJQsqaUBKTNV-1">
          <mxGeometry x="290" y="140" width="120" height="40" as="geometry" />
        </mxCell>
        <mxCell id="tpvj4CS7-NAzmeMGIOc2-8" value="" style="edgeStyle=orthogonalEdgeStyle;html=1;verticalAlign=bottom;endArrow=open;endSize=8;strokeColor=#ff0000;rounded=0;entryX=0;entryY=0.5;entryDx=0;entryDy=0;exitX=1;exitY=0.5;exitDx=0;exitDy=0;" edge="1" parent="WIyWlLk6GJQsqaUBKTNV-1" source="tpvj4CS7-NAzmeMGIOc2-4" target="tpvj4CS7-NAzmeMGIOc2-7">
          <mxGeometry relative="1" as="geometry">
            <mxPoint x="238" y="208" as="targetPoint" />
            <mxPoint x="238" y="134" as="sourcePoint" />
          </mxGeometry>
        </mxCell>
        <mxCell id="tpvj4CS7-NAzmeMGIOc2-9" value="Đăng nhập" style="rounded=1;whiteSpace=wrap;html=1;fontSize=12;glass=0;strokeWidth=1;shadow=0;" vertex="1" parent="WIyWlLk6GJQsqaUBKTNV-1">
          <mxGeometry y="268" width="120" height="40" as="geometry" />
        </mxCell>
        <mxCell id="tpvj4CS7-NAzmeMGIOc2-12" value="" style="endArrow=classic;html=1;rounded=0;exitX=0;exitY=0.5;exitDx=0;exitDy=0;entryX=0.5;entryY=1;entryDx=0;entryDy=0;" edge="1" parent="WIyWlLk6GJQsqaUBKTNV-1" source="WIyWlLk6GJQsqaUBKTNV-10" target="tpvj4CS7-NAzmeMGIOc2-9">
          <mxGeometry relative="1" as="geometry">
            <mxPoint x="364" y="311" as="sourcePoint" />
            <mxPoint x="464" y="311" as="targetPoint" />
            <Array as="points">
              <mxPoint x="62" y="345" />
            </Array>
          </mxGeometry>
        </mxCell>
        <mxCell id="tpvj4CS7-NAzmeMGIOc2-13" value="Chưa đăng nhập" style="edgeLabel;resizable=0;html=1;;align=center;verticalAlign=middle;" connectable="0" vertex="1" parent="tpvj4CS7-NAzmeMGIOc2-12">
          <mxGeometry relative="1" as="geometry" />
        </mxCell>
        <mxCell id="tpvj4CS7-NAzmeMGIOc2-15" value="" style="edgeStyle=orthogonalEdgeStyle;html=1;verticalAlign=bottom;endArrow=open;endSize=8;strokeColor=#ff0000;rounded=0;entryX=0.5;entryY=0;entryDx=0;entryDy=0;exitX=0.5;exitY=1;exitDx=0;exitDy=0;" edge="1" parent="WIyWlLk6GJQsqaUBKTNV-1" source="WIyWlLk6GJQsqaUBKTNV-11" target="WIyWlLk6GJQsqaUBKTNV-10">
          <mxGeometry relative="1" as="geometry">
            <mxPoint x="238" y="208" as="targetPoint" />
            <mxPoint x="238" y="134" as="sourcePoint" />
          </mxGeometry>
        </mxCell>
        <mxCell id="tpvj4CS7-NAzmeMGIOc2-16" value="" style="edgeStyle=orthogonalEdgeStyle;html=1;verticalAlign=bottom;endArrow=open;endSize=8;strokeColor=#ff0000;rounded=0;entryX=1;entryY=0.5;entryDx=0;entryDy=0;exitX=0.5;exitY=1;exitDx=0;exitDy=0;" edge="1" parent="WIyWlLk6GJQsqaUBKTNV-1" source="tpvj4CS7-NAzmeMGIOc2-7" target="WIyWlLk6GJQsqaUBKTNV-11">
          <mxGeometry relative="1" as="geometry">
            <mxPoint x="238" y="208" as="targetPoint" />
            <mxPoint x="238" y="134" as="sourcePoint" />
          </mxGeometry>
        </mxCell>
        <mxCell id="tpvj4CS7-NAzmeMGIOc2-17" value="" style="edgeStyle=orthogonalEdgeStyle;html=1;verticalAlign=bottom;endArrow=open;endSize=8;strokeColor=#ff0000;rounded=0;entryX=0;entryY=0.5;entryDx=0;entryDy=0;exitX=0.5;exitY=0;exitDx=0;exitDy=0;" edge="1" parent="WIyWlLk6GJQsqaUBKTNV-1" source="tpvj4CS7-NAzmeMGIOc2-9" target="WIyWlLk6GJQsqaUBKTNV-11">
          <mxGeometry relative="1" as="geometry">
            <mxPoint x="230" y="311" as="targetPoint" />
            <mxPoint x="230" y="248" as="sourcePoint" />
          </mxGeometry>
        </mxCell>
        <mxCell id="tpvj4CS7-NAzmeMGIOc2-30" style="edgeStyle=orthogonalEdgeStyle;rounded=0;orthogonalLoop=1;jettySize=auto;html=1;exitX=1;exitY=0.5;exitDx=0;exitDy=0;entryX=0;entryY=0.5;entryDx=0;entryDy=0;" edge="1" parent="WIyWlLk6GJQsqaUBKTNV-1" source="tpvj4CS7-NAzmeMGIOc2-18" target="tpvj4CS7-NAzmeMGIOc2-19">
          <mxGeometry relative="1" as="geometry" />
        </mxCell>
        <mxCell id="tpvj4CS7-NAzmeMGIOc2-18" value="Chọn loại booking" style="rounded=1;whiteSpace=wrap;html=1;fontSize=12;glass=0;strokeWidth=1;shadow=0;" vertex="1" parent="WIyWlLk6GJQsqaUBKTNV-1">
          <mxGeometry x="313" y="390" width="120" height="40" as="geometry" />
        </mxCell>
        <mxCell id="tpvj4CS7-NAzmeMGIOc2-31" value="" style="edgeStyle=orthogonalEdgeStyle;rounded=0;orthogonalLoop=1;jettySize=auto;html=1;" edge="1" parent="WIyWlLk6GJQsqaUBKTNV-1" source="tpvj4CS7-NAzmeMGIOc2-19" target="tpvj4CS7-NAzmeMGIOc2-20">
          <mxGeometry relative="1" as="geometry" />
        </mxCell>
        <mxCell id="tpvj4CS7-NAzmeMGIOc2-19" value="Chọn thời gian đặt phòng" style="rounded=1;whiteSpace=wrap;html=1;fontSize=12;glass=0;strokeWidth=1;shadow=0;" vertex="1" parent="WIyWlLk6GJQsqaUBKTNV-1">
          <mxGeometry x="470" y="390" width="120" height="40" as="geometry" />
        </mxCell>
        <mxCell id="tpvj4CS7-NAzmeMGIOc2-32" value="" style="edgeStyle=orthogonalEdgeStyle;rounded=0;orthogonalLoop=1;jettySize=auto;html=1;" edge="1" parent="WIyWlLk6GJQsqaUBKTNV-1" source="tpvj4CS7-NAzmeMGIOc2-20" target="tpvj4CS7-NAzmeMGIOc2-21">
          <mxGeometry relative="1" as="geometry" />
        </mxCell>
        <mxCell id="tpvj4CS7-NAzmeMGIOc2-20" value="Chọn loại phòng muốn đặt" style="rounded=1;whiteSpace=wrap;html=1;fontSize=12;glass=0;strokeWidth=1;shadow=0;" vertex="1" parent="WIyWlLk6GJQsqaUBKTNV-1">
          <mxGeometry x="470" y="469" width="120" height="40" as="geometry" />
        </mxCell>
        <mxCell id="tpvj4CS7-NAzmeMGIOc2-34" value="" style="edgeStyle=orthogonalEdgeStyle;rounded=0;orthogonalLoop=1;jettySize=auto;html=1;" edge="1" parent="WIyWlLk6GJQsqaUBKTNV-1" source="tpvj4CS7-NAzmeMGIOc2-21" target="tpvj4CS7-NAzmeMGIOc2-22">
          <mxGeometry relative="1" as="geometry" />
        </mxCell>
        <mxCell id="tpvj4CS7-NAzmeMGIOc2-21" value="Chọn số lượng phòng" style="rounded=1;whiteSpace=wrap;html=1;fontSize=12;glass=0;strokeWidth=1;shadow=0;" vertex="1" parent="WIyWlLk6GJQsqaUBKTNV-1">
          <mxGeometry x="313" y="469" width="120" height="40" as="geometry" />
        </mxCell>
        <mxCell id="tpvj4CS7-NAzmeMGIOc2-35" value="" style="edgeStyle=orthogonalEdgeStyle;rounded=0;orthogonalLoop=1;jettySize=auto;html=1;" edge="1" parent="WIyWlLk6GJQsqaUBKTNV-1" source="tpvj4CS7-NAzmeMGIOc2-22" target="tpvj4CS7-NAzmeMGIOc2-6">
          <mxGeometry relative="1" as="geometry" />
        </mxCell>
        <mxCell id="tpvj4CS7-NAzmeMGIOc2-22" value="Điền thông tin liên hệ và phương thức thanh toán" style="rounded=1;whiteSpace=wrap;html=1;fontSize=12;glass=0;strokeWidth=1;shadow=0;" vertex="1" parent="WIyWlLk6GJQsqaUBKTNV-1">
          <mxGeometry x="313" y="542" width="120" height="40" as="geometry" />
        </mxCell>
        <mxCell id="tpvj4CS7-NAzmeMGIOc2-26" value="" style="endArrow=classic;html=1;rounded=0;exitX=0.5;exitY=1;exitDx=0;exitDy=0;entryX=0;entryY=0.75;entryDx=0;entryDy=0;" edge="1" parent="WIyWlLk6GJQsqaUBKTNV-1" source="WIyWlLk6GJQsqaUBKTNV-10" target="tpvj4CS7-NAzmeMGIOc2-18">
          <mxGeometry relative="1" as="geometry">
            <mxPoint x="180" y="351" as="sourcePoint" />
            <mxPoint x="70" y="318" as="targetPoint" />
            <Array as="points">
              <mxPoint x="220" y="420" />
            </Array>
          </mxGeometry>
        </mxCell>
        <mxCell id="tpvj4CS7-NAzmeMGIOc2-28" value="Text" style="edgeLabel;html=1;align=center;verticalAlign=middle;resizable=0;points=[];" vertex="1" connectable="0" parent="tpvj4CS7-NAzmeMGIOc2-26">
          <mxGeometry x="0.2273" relative="1" as="geometry">
            <mxPoint as="offset" />
          </mxGeometry>
        </mxCell>
        <mxCell id="tpvj4CS7-NAzmeMGIOc2-29" value="Đã đăng nhập" style="edgeLabel;html=1;align=center;verticalAlign=middle;resizable=0;points=[];" vertex="1" connectable="0" parent="tpvj4CS7-NAzmeMGIOc2-26">
          <mxGeometry x="0.2424" y="-1" relative="1" as="geometry">
            <mxPoint as="offset" />
          </mxGeometry>
        </mxCell>
      </root>
    </mxGraphModel>
  </diagram>
  <diagram name="flowchart khướu nại" id="5Y8Dnv2xPw9IxhfvldU-">
    <mxGraphModel dx="1387" dy="797" grid="0" gridSize="10" guides="1" tooltips="1" connect="1" arrows="1" fold="1" page="0" pageScale="1" pageWidth="827" pageHeight="1169" math="0" shadow="0">
      <root>
        <mxCell id="x1sz1BzUppV7w-AZWgg5-0" />
        <mxCell id="x1sz1BzUppV7w-AZWgg5-1" parent="x1sz1BzUppV7w-AZWgg5-0" />
        <mxCell id="iZwWyoa55qzO6TNaH1sI-2" value="" style="edgeStyle=orthogonalEdgeStyle;rounded=0;orthogonalLoop=1;jettySize=auto;html=1;" edge="1" parent="x1sz1BzUppV7w-AZWgg5-1" source="x1sz1BzUppV7w-AZWgg5-4" target="iZwWyoa55qzO6TNaH1sI-0">
          <mxGeometry relative="1" as="geometry" />
        </mxCell>
        <mxCell id="x1sz1BzUppV7w-AZWgg5-4" value="" style="ellipse;html=1;shape=startState;fillColor=#000000;strokeColor=#ff0000;" vertex="1" parent="x1sz1BzUppV7w-AZWgg5-1">
          <mxGeometry x="213" y="82" width="30" height="30" as="geometry" />
        </mxCell>
        <mxCell id="x1sz1BzUppV7w-AZWgg5-6" value="" style="ellipse;html=1;shape=endState;fillColor=#000000;strokeColor=#ff0000;" vertex="1" parent="x1sz1BzUppV7w-AZWgg5-1">
          <mxGeometry x="234" y="547" width="30" height="30" as="geometry" />
        </mxCell>
        <mxCell id="E3JXeNqQt7wPLBCFKcco-1" value="Trạng thái tài khoản" style="rhombus;whiteSpace=wrap;html=1;shadow=0;fontFamily=Helvetica;fontSize=12;align=center;strokeWidth=1;spacing=6;spacingTop=-4;" vertex="1" parent="x1sz1BzUppV7w-AZWgg5-1">
          <mxGeometry x="178" y="215" width="100" height="80" as="geometry" />
        </mxCell>
        <mxCell id="E3JXeNqQt7wPLBCFKcco-2" value="" style="endArrow=classic;html=1;rounded=0;exitX=0;exitY=0.5;exitDx=0;exitDy=0;entryX=0;entryY=0.5;entryDx=0;entryDy=0;" edge="1" parent="x1sz1BzUppV7w-AZWgg5-1" source="E3JXeNqQt7wPLBCFKcco-1" target="x1sz1BzUppV7w-AZWgg5-6">
          <mxGeometry relative="1" as="geometry">
            <mxPoint x="370" y="227" as="sourcePoint" />
            <mxPoint x="66" y="224" as="targetPoint" />
            <Array as="points">
              <mxPoint x="68" y="261" />
              <mxPoint x="71" y="562" />
            </Array>
          </mxGeometry>
        </mxCell>
        <mxCell id="E3JXeNqQt7wPLBCFKcco-3" value="active" style="edgeLabel;resizable=0;html=1;;align=center;verticalAlign=middle;" connectable="0" vertex="1" parent="E3JXeNqQt7wPLBCFKcco-2">
          <mxGeometry relative="1" as="geometry" />
        </mxCell>
        <mxCell id="E3JXeNqQt7wPLBCFKcco-4" value="" style="endArrow=classic;html=1;rounded=0;exitX=0.5;exitY=1;exitDx=0;exitDy=0;entryX=0.5;entryY=0;entryDx=0;entryDy=0;" edge="1" parent="x1sz1BzUppV7w-AZWgg5-1" source="E3JXeNqQt7wPLBCFKcco-1" target="iZwWyoa55qzO6TNaH1sI-4">
          <mxGeometry relative="1" as="geometry">
            <mxPoint x="186" y="267" as="sourcePoint" />
            <mxPoint x="319" y="336" as="targetPoint" />
            <Array as="points">
              <mxPoint x="226" y="336" />
            </Array>
          </mxGeometry>
        </mxCell>
        <mxCell id="E3JXeNqQt7wPLBCFKcco-5" value="Text" style="edgeLabel;html=1;align=center;verticalAlign=middle;resizable=0;points=[];" vertex="1" connectable="0" parent="E3JXeNqQt7wPLBCFKcco-4">
          <mxGeometry x="0.2273" relative="1" as="geometry">
            <mxPoint as="offset" />
          </mxGeometry>
        </mxCell>
        <mxCell id="E3JXeNqQt7wPLBCFKcco-6" value="suspended/banned" style="edgeLabel;html=1;align=center;verticalAlign=middle;resizable=0;points=[];" vertex="1" connectable="0" parent="E3JXeNqQt7wPLBCFKcco-4">
          <mxGeometry x="0.2424" y="-1" relative="1" as="geometry">
            <mxPoint as="offset" />
          </mxGeometry>
        </mxCell>
        <mxCell id="iZwWyoa55qzO6TNaH1sI-3" value="" style="edgeStyle=orthogonalEdgeStyle;rounded=0;orthogonalLoop=1;jettySize=auto;html=1;" edge="1" parent="x1sz1BzUppV7w-AZWgg5-1" source="iZwWyoa55qzO6TNaH1sI-0" target="E3JXeNqQt7wPLBCFKcco-1">
          <mxGeometry relative="1" as="geometry" />
        </mxCell>
        <mxCell id="iZwWyoa55qzO6TNaH1sI-0" value="Đăng nhập" style="rounded=1;whiteSpace=wrap;html=1;fontSize=12;glass=0;strokeWidth=1;shadow=0;" vertex="1" parent="x1sz1BzUppV7w-AZWgg5-1">
          <mxGeometry x="168" y="139" width="120" height="40" as="geometry" />
        </mxCell>
        <mxCell id="iZwWyoa55qzO6TNaH1sI-6" value="" style="edgeStyle=orthogonalEdgeStyle;rounded=0;orthogonalLoop=1;jettySize=auto;html=1;" edge="1" parent="x1sz1BzUppV7w-AZWgg5-1" source="iZwWyoa55qzO6TNaH1sI-4" target="iZwWyoa55qzO6TNaH1sI-5">
          <mxGeometry relative="1" as="geometry" />
        </mxCell>
        <mxCell id="iZwWyoa55qzO6TNaH1sI-4" value="Màn hỉnh hiển thị thời gian bị khóa" style="rounded=1;whiteSpace=wrap;html=1;fontSize=12;glass=0;strokeWidth=1;shadow=0;" vertex="1" parent="x1sz1BzUppV7w-AZWgg5-1">
          <mxGeometry x="166" y="392" width="120" height="40" as="geometry" />
        </mxCell>
        <mxCell id="iZwWyoa55qzO6TNaH1sI-7" value="" style="edgeStyle=orthogonalEdgeStyle;rounded=0;orthogonalLoop=1;jettySize=auto;html=1;" edge="1" parent="x1sz1BzUppV7w-AZWgg5-1" source="iZwWyoa55qzO6TNaH1sI-5" target="x1sz1BzUppV7w-AZWgg5-6">
          <mxGeometry relative="1" as="geometry" />
        </mxCell>
        <mxCell id="iZwWyoa55qzO6TNaH1sI-5" value="Gửi đơn khướu nại" style="rounded=1;whiteSpace=wrap;html=1;fontSize=12;glass=0;strokeWidth=1;shadow=0;" vertex="1" parent="x1sz1BzUppV7w-AZWgg5-1">
          <mxGeometry x="168" y="467" width="120" height="40" as="geometry" />
        </mxCell>
      </root>
    </mxGraphModel>
  </diagram>
  <diagram name="flowchart đặt đồ ăn/ service" id="EZ_CwQ2aVMCzbmOnPj7j">
    <mxGraphModel dx="1787" dy="797" grid="0" gridSize="10" guides="1" tooltips="1" connect="1" arrows="1" fold="1" page="0" pageScale="1" pageWidth="827" pageHeight="1169" math="0" shadow="0">
      <root>
        <mxCell id="WIPGwSNq3MdUE2kaTCx7-0" />
        <mxCell id="WIPGwSNq3MdUE2kaTCx7-1" parent="WIPGwSNq3MdUE2kaTCx7-0" />
        <mxCell id="WIPGwSNq3MdUE2kaTCx7-2" value="Đã đăng nhập" style="rhombus;whiteSpace=wrap;html=1;shadow=0;fontFamily=Helvetica;fontSize=12;align=center;strokeWidth=1;spacing=6;spacingTop=-4;" vertex="1" parent="WIPGwSNq3MdUE2kaTCx7-1">
          <mxGeometry x="170" y="301" width="100" height="80" as="geometry" />
        </mxCell>
        <mxCell id="WIPGwSNq3MdUE2kaTCx7-3" value="Chọn vào trang dining" style="rounded=1;whiteSpace=wrap;html=1;fontSize=12;glass=0;strokeWidth=1;shadow=0;" vertex="1" parent="WIPGwSNq3MdUE2kaTCx7-1">
          <mxGeometry x="160" y="198" width="120" height="40" as="geometry" />
        </mxCell>
        <mxCell id="WIPGwSNq3MdUE2kaTCx7-4" value="" style="ellipse;html=1;shape=startState;fillColor=#000000;strokeColor=#ff0000;" vertex="1" parent="WIPGwSNq3MdUE2kaTCx7-1">
          <mxGeometry x="213" y="94" width="30" height="30" as="geometry" />
        </mxCell>
        <mxCell id="WIPGwSNq3MdUE2kaTCx7-5" value="" style="edgeStyle=orthogonalEdgeStyle;html=1;verticalAlign=bottom;endArrow=open;endSize=8;strokeColor=#ff0000;rounded=0;entryX=0.567;entryY=0;entryDx=0;entryDy=0;entryPerimeter=0;" edge="1" parent="WIPGwSNq3MdUE2kaTCx7-1" source="WIPGwSNq3MdUE2kaTCx7-4" target="WIPGwSNq3MdUE2kaTCx7-3">
          <mxGeometry relative="1" as="geometry">
            <mxPoint x="241" y="201" as="targetPoint" />
          </mxGeometry>
        </mxCell>
        <mxCell id="WIPGwSNq3MdUE2kaTCx7-6" value="" style="ellipse;html=1;shape=endState;fillColor=#000000;strokeColor=#ff0000;" vertex="1" parent="WIPGwSNq3MdUE2kaTCx7-1">
          <mxGeometry x="424" y="597" width="30" height="30" as="geometry" />
        </mxCell>
        <mxCell id="WIPGwSNq3MdUE2kaTCx7-9" value="Đăng nhập" style="rounded=1;whiteSpace=wrap;html=1;fontSize=12;glass=0;strokeWidth=1;shadow=0;" vertex="1" parent="WIPGwSNq3MdUE2kaTCx7-1">
          <mxGeometry y="268" width="120" height="40" as="geometry" />
        </mxCell>
        <mxCell id="WIPGwSNq3MdUE2kaTCx7-10" value="" style="endArrow=classic;html=1;rounded=0;exitX=0;exitY=0.5;exitDx=0;exitDy=0;entryX=0.5;entryY=1;entryDx=0;entryDy=0;" edge="1" parent="WIPGwSNq3MdUE2kaTCx7-1" source="WIPGwSNq3MdUE2kaTCx7-2" target="WIPGwSNq3MdUE2kaTCx7-9">
          <mxGeometry relative="1" as="geometry">
            <mxPoint x="364" y="311" as="sourcePoint" />
            <mxPoint x="464" y="311" as="targetPoint" />
            <Array as="points">
              <mxPoint x="62" y="345" />
            </Array>
          </mxGeometry>
        </mxCell>
        <mxCell id="WIPGwSNq3MdUE2kaTCx7-11" value="Chưa đăng nhập" style="edgeLabel;resizable=0;html=1;;align=center;verticalAlign=middle;" connectable="0" vertex="1" parent="WIPGwSNq3MdUE2kaTCx7-10">
          <mxGeometry relative="1" as="geometry" />
        </mxCell>
        <mxCell id="WIPGwSNq3MdUE2kaTCx7-12" value="" style="edgeStyle=orthogonalEdgeStyle;html=1;verticalAlign=bottom;endArrow=open;endSize=8;strokeColor=#ff0000;rounded=0;entryX=0.5;entryY=0;entryDx=0;entryDy=0;exitX=0.5;exitY=1;exitDx=0;exitDy=0;" edge="1" parent="WIPGwSNq3MdUE2kaTCx7-1" source="WIPGwSNq3MdUE2kaTCx7-3" target="WIPGwSNq3MdUE2kaTCx7-2">
          <mxGeometry relative="1" as="geometry">
            <mxPoint x="238" y="208" as="targetPoint" />
            <mxPoint x="238" y="134" as="sourcePoint" />
          </mxGeometry>
        </mxCell>
        <mxCell id="WIPGwSNq3MdUE2kaTCx7-14" value="" style="edgeStyle=orthogonalEdgeStyle;html=1;verticalAlign=bottom;endArrow=open;endSize=8;strokeColor=#ff0000;rounded=0;entryX=0;entryY=0.5;entryDx=0;entryDy=0;exitX=0.5;exitY=0;exitDx=0;exitDy=0;" edge="1" parent="WIPGwSNq3MdUE2kaTCx7-1" source="WIPGwSNq3MdUE2kaTCx7-9" target="WIPGwSNq3MdUE2kaTCx7-3">
          <mxGeometry relative="1" as="geometry">
            <mxPoint x="230" y="311" as="targetPoint" />
            <mxPoint x="230" y="248" as="sourcePoint" />
          </mxGeometry>
        </mxCell>
        <mxCell id="WIPGwSNq3MdUE2kaTCx7-25" value="" style="endArrow=classic;html=1;rounded=0;exitX=0.5;exitY=1;exitDx=0;exitDy=0;entryX=0.5;entryY=0;entryDx=0;entryDy=0;" edge="1" parent="WIPGwSNq3MdUE2kaTCx7-1" source="WIPGwSNq3MdUE2kaTCx7-2" target="CLBBE7CeemHxNnWFARrd-1">
          <mxGeometry relative="1" as="geometry">
            <mxPoint x="180" y="351" as="sourcePoint" />
            <mxPoint x="313" y="420" as="targetPoint" />
            <Array as="points">
              <mxPoint x="220" y="420" />
            </Array>
          </mxGeometry>
        </mxCell>
        <mxCell id="WIPGwSNq3MdUE2kaTCx7-26" value="Text" style="edgeLabel;html=1;align=center;verticalAlign=middle;resizable=0;points=[];" vertex="1" connectable="0" parent="WIPGwSNq3MdUE2kaTCx7-25">
          <mxGeometry x="0.2273" relative="1" as="geometry">
            <mxPoint as="offset" />
          </mxGeometry>
        </mxCell>
        <mxCell id="WIPGwSNq3MdUE2kaTCx7-27" value="Đã đăng nhập" style="edgeLabel;html=1;align=center;verticalAlign=middle;resizable=0;points=[];" vertex="1" connectable="0" parent="WIPGwSNq3MdUE2kaTCx7-25">
          <mxGeometry x="0.2424" y="-1" relative="1" as="geometry">
            <mxPoint as="offset" />
          </mxGeometry>
        </mxCell>
        <mxCell id="CLBBE7CeemHxNnWFARrd-16" value="" style="edgeStyle=orthogonalEdgeStyle;rounded=0;orthogonalLoop=1;jettySize=auto;html=1;" edge="1" parent="WIPGwSNq3MdUE2kaTCx7-1" source="CLBBE7CeemHxNnWFARrd-0" target="CLBBE7CeemHxNnWFARrd-13">
          <mxGeometry relative="1" as="geometry" />
        </mxCell>
        <mxCell id="CLBBE7CeemHxNnWFARrd-0" value="HIển thị menu đồ ăn/ dịch vụ" style="rounded=1;whiteSpace=wrap;html=1;fontSize=12;glass=0;strokeWidth=1;shadow=0;" vertex="1" parent="WIPGwSNq3MdUE2kaTCx7-1">
          <mxGeometry x="387" y="453" width="120" height="40" as="geometry" />
        </mxCell>
        <mxCell id="CLBBE7CeemHxNnWFARrd-1" value="Có booking ở trạng thái check in" style="rhombus;whiteSpace=wrap;html=1;shadow=0;fontFamily=Helvetica;fontSize=12;align=center;strokeWidth=1;spacing=6;spacingTop=-4;" vertex="1" parent="WIPGwSNq3MdUE2kaTCx7-1">
          <mxGeometry x="164" y="433" width="112" height="92" as="geometry" />
        </mxCell>
        <mxCell id="CLBBE7CeemHxNnWFARrd-4" value="" style="endArrow=classic;html=1;rounded=0;exitX=0;exitY=0.5;exitDx=0;exitDy=0;entryX=0;entryY=0.5;entryDx=0;entryDy=0;" edge="1" parent="WIPGwSNq3MdUE2kaTCx7-1" target="WIPGwSNq3MdUE2kaTCx7-4">
          <mxGeometry relative="1" as="geometry">
            <mxPoint x="166" y="479" as="sourcePoint" />
            <mxPoint x="56" y="446" as="targetPoint" />
            <Array as="points">
              <mxPoint x="-125" y="485" />
              <mxPoint x="-127" y="119" />
            </Array>
          </mxGeometry>
        </mxCell>
        <mxCell id="CLBBE7CeemHxNnWFARrd-5" value="Chưa có" style="edgeLabel;resizable=0;html=1;;align=center;verticalAlign=middle;" connectable="0" vertex="1" parent="CLBBE7CeemHxNnWFARrd-4">
          <mxGeometry relative="1" as="geometry" />
        </mxCell>
        <mxCell id="CLBBE7CeemHxNnWFARrd-9" value="" style="endArrow=classic;html=1;rounded=0;exitX=1;exitY=0.5;exitDx=0;exitDy=0;entryX=0.015;entryY=0.637;entryDx=0;entryDy=0;entryPerimeter=0;" edge="1" parent="WIPGwSNq3MdUE2kaTCx7-1" source="CLBBE7CeemHxNnWFARrd-1" target="CLBBE7CeemHxNnWFARrd-0">
          <mxGeometry relative="1" as="geometry">
            <mxPoint x="306" y="450" as="sourcePoint" />
            <mxPoint x="306" y="502" as="targetPoint" />
            <Array as="points" />
          </mxGeometry>
        </mxCell>
        <mxCell id="CLBBE7CeemHxNnWFARrd-10" value="Text" style="edgeLabel;html=1;align=center;verticalAlign=middle;resizable=0;points=[];" vertex="1" connectable="0" parent="CLBBE7CeemHxNnWFARrd-9">
          <mxGeometry x="0.2273" relative="1" as="geometry">
            <mxPoint as="offset" />
          </mxGeometry>
        </mxCell>
        <mxCell id="CLBBE7CeemHxNnWFARrd-11" value="Đã có" style="edgeLabel;html=1;align=center;verticalAlign=middle;resizable=0;points=[];" vertex="1" connectable="0" parent="CLBBE7CeemHxNnWFARrd-9">
          <mxGeometry x="0.2424" y="-1" relative="1" as="geometry">
            <mxPoint as="offset" />
          </mxGeometry>
        </mxCell>
        <mxCell id="CLBBE7CeemHxNnWFARrd-17" value="" style="edgeStyle=orthogonalEdgeStyle;rounded=0;orthogonalLoop=1;jettySize=auto;html=1;" edge="1" parent="WIPGwSNq3MdUE2kaTCx7-1" source="CLBBE7CeemHxNnWFARrd-13" target="CLBBE7CeemHxNnWFARrd-14">
          <mxGeometry relative="1" as="geometry" />
        </mxCell>
        <mxCell id="CLBBE7CeemHxNnWFARrd-13" value="Chọn phương thức thanh toán" style="rounded=1;whiteSpace=wrap;html=1;fontSize=12;glass=0;strokeWidth=1;shadow=0;" vertex="1" parent="WIPGwSNq3MdUE2kaTCx7-1">
          <mxGeometry x="538" y="451" width="120" height="40" as="geometry" />
        </mxCell>
        <mxCell id="CLBBE7CeemHxNnWFARrd-18" value="" style="edgeStyle=orthogonalEdgeStyle;rounded=0;orthogonalLoop=1;jettySize=auto;html=1;" edge="1" parent="WIPGwSNq3MdUE2kaTCx7-1" source="CLBBE7CeemHxNnWFARrd-14" target="CLBBE7CeemHxNnWFARrd-15">
          <mxGeometry relative="1" as="geometry" />
        </mxCell>
        <mxCell id="CLBBE7CeemHxNnWFARrd-14" value="Chọn phương thức giao hàng" style="rounded=1;whiteSpace=wrap;html=1;fontSize=12;glass=0;strokeWidth=1;shadow=0;" vertex="1" parent="WIPGwSNq3MdUE2kaTCx7-1">
          <mxGeometry x="544" y="525" width="120" height="40" as="geometry" />
        </mxCell>
        <mxCell id="CLBBE7CeemHxNnWFARrd-22" value="" style="edgeStyle=orthogonalEdgeStyle;rounded=0;orthogonalLoop=1;jettySize=auto;html=1;" edge="1" parent="WIPGwSNq3MdUE2kaTCx7-1" source="CLBBE7CeemHxNnWFARrd-15" target="WIPGwSNq3MdUE2kaTCx7-6">
          <mxGeometry relative="1" as="geometry" />
        </mxCell>
        <mxCell id="CLBBE7CeemHxNnWFARrd-15" value="Chọn phòng cần giao" style="rounded=1;whiteSpace=wrap;html=1;fontSize=12;glass=0;strokeWidth=1;shadow=0;" vertex="1" parent="WIPGwSNq3MdUE2kaTCx7-1">
          <mxGeometry x="379" y="525" width="120" height="40" as="geometry" />
        </mxCell>
      </root>
    </mxGraphModel>
  </diagram>
  <diagram name="flowchart quản lý tiện nghi" id="dR2MNtPfOHuZSj9Pljwd">
    <mxGraphModel dx="1787" dy="797" grid="0" gridSize="10" guides="1" tooltips="1" connect="1" arrows="1" fold="1" page="0" pageScale="1" pageWidth="827" pageHeight="1169" math="0" shadow="0">
      <root>
        <mxCell id="cfDy6gDimkklNHkqQg3o-0" />
        <mxCell id="cfDy6gDimkklNHkqQg3o-1" parent="cfDy6gDimkklNHkqQg3o-0" />
        <mxCell id="hFvUWZmGQNEbpqs4aMCr-1" value="" style="edgeStyle=orthogonalEdgeStyle;rounded=0;orthogonalLoop=1;jettySize=auto;html=1;" edge="1" parent="cfDy6gDimkklNHkqQg3o-1" source="cfDy6gDimkklNHkqQg3o-3" target="cfDy6gDimkklNHkqQg3o-12">
          <mxGeometry relative="1" as="geometry" />
        </mxCell>
        <mxCell id="cfDy6gDimkklNHkqQg3o-3" value="" style="ellipse;html=1;shape=startState;fillColor=#000000;strokeColor=#ff0000;" vertex="1" parent="cfDy6gDimkklNHkqQg3o-1">
          <mxGeometry x="-119" y="130" width="30" height="30" as="geometry" />
        </mxCell>
        <mxCell id="cfDy6gDimkklNHkqQg3o-4" value="" style="ellipse;html=1;shape=endState;fillColor=#000000;strokeColor=#ff0000;" vertex="1" parent="cfDy6gDimkklNHkqQg3o-1">
          <mxGeometry x="605" y="551" width="30" height="30" as="geometry" />
        </mxCell>
        <mxCell id="hFvUWZmGQNEbpqs4aMCr-2" style="edgeStyle=orthogonalEdgeStyle;rounded=0;orthogonalLoop=1;jettySize=auto;html=1;entryX=0;entryY=0.5;entryDx=0;entryDy=0;" edge="1" parent="cfDy6gDimkklNHkqQg3o-1" source="cfDy6gDimkklNHkqQg3o-12" target="hFvUWZmGQNEbpqs4aMCr-0">
          <mxGeometry relative="1" as="geometry" />
        </mxCell>
        <mxCell id="cfDy6gDimkklNHkqQg3o-12" value="Đăng nhập" style="rounded=1;whiteSpace=wrap;html=1;fontSize=12;glass=0;strokeWidth=1;shadow=0;" vertex="1" parent="cfDy6gDimkklNHkqQg3o-1">
          <mxGeometry x="-58" y="125" width="120" height="40" as="geometry" />
        </mxCell>
        <mxCell id="hFvUWZmGQNEbpqs4aMCr-3" style="edgeStyle=orthogonalEdgeStyle;rounded=0;orthogonalLoop=1;jettySize=auto;html=1;entryX=0.5;entryY=0;entryDx=0;entryDy=0;" edge="1" parent="cfDy6gDimkklNHkqQg3o-1" source="hFvUWZmGQNEbpqs4aMCr-0" target="cfDy6gDimkklNHkqQg3o-3">
          <mxGeometry relative="1" as="geometry">
            <Array as="points">
              <mxPoint x="134" y="64" />
              <mxPoint x="-104" y="64" />
            </Array>
          </mxGeometry>
        </mxCell>
        <mxCell id="hFvUWZmGQNEbpqs4aMCr-4" value="Là user" style="edgeLabel;html=1;align=center;verticalAlign=middle;resizable=0;points=[];" vertex="1" connectable="0" parent="hFvUWZmGQNEbpqs4aMCr-3">
          <mxGeometry x="-0.2638" y="5" relative="1" as="geometry">
            <mxPoint as="offset" />
          </mxGeometry>
        </mxCell>
        <mxCell id="hFvUWZmGQNEbpqs4aMCr-9" value="" style="edgeStyle=orthogonalEdgeStyle;rounded=0;orthogonalLoop=1;jettySize=auto;html=1;" edge="1" parent="cfDy6gDimkklNHkqQg3o-1" source="hFvUWZmGQNEbpqs4aMCr-0" target="hFvUWZmGQNEbpqs4aMCr-7">
          <mxGeometry relative="1" as="geometry" />
        </mxCell>
        <mxCell id="hFvUWZmGQNEbpqs4aMCr-10" value="là admin" style="edgeLabel;html=1;align=center;verticalAlign=middle;resizable=0;points=[];" vertex="1" connectable="0" parent="hFvUWZmGQNEbpqs4aMCr-9">
          <mxGeometry x="-0.2346" y="4" relative="1" as="geometry">
            <mxPoint as="offset" />
          </mxGeometry>
        </mxCell>
        <mxCell id="hFvUWZmGQNEbpqs4aMCr-0" value="role tài khoản" style="rhombus;whiteSpace=wrap;html=1;shadow=0;fontFamily=Helvetica;fontSize=12;align=center;strokeWidth=1;spacing=6;spacingTop=-4;" vertex="1" parent="cfDy6gDimkklNHkqQg3o-1">
          <mxGeometry x="84" y="105" width="100" height="80" as="geometry" />
        </mxCell>
        <mxCell id="hFvUWZmGQNEbpqs4aMCr-12" style="edgeStyle=orthogonalEdgeStyle;rounded=0;orthogonalLoop=1;jettySize=auto;html=1;entryX=0.5;entryY=0;entryDx=0;entryDy=0;" edge="1" parent="cfDy6gDimkklNHkqQg3o-1" source="hFvUWZmGQNEbpqs4aMCr-7" target="hFvUWZmGQNEbpqs4aMCr-11">
          <mxGeometry relative="1" as="geometry" />
        </mxCell>
        <mxCell id="hFvUWZmGQNEbpqs4aMCr-7" value="Chọn quản lý tiện nghi" style="rounded=1;whiteSpace=wrap;html=1;fontSize=12;glass=0;strokeWidth=1;shadow=0;" vertex="1" parent="cfDy6gDimkklNHkqQg3o-1">
          <mxGeometry x="265" y="125" width="120" height="40" as="geometry" />
        </mxCell>
        <mxCell id="hFvUWZmGQNEbpqs4aMCr-14" style="edgeStyle=orthogonalEdgeStyle;rounded=0;orthogonalLoop=1;jettySize=auto;html=1;entryX=0;entryY=0.5;entryDx=0;entryDy=0;" edge="1" parent="cfDy6gDimkklNHkqQg3o-1" source="hFvUWZmGQNEbpqs4aMCr-11" target="hFvUWZmGQNEbpqs4aMCr-13">
          <mxGeometry relative="1" as="geometry" />
        </mxCell>
        <mxCell id="hFvUWZmGQNEbpqs4aMCr-32" style="edgeStyle=orthogonalEdgeStyle;rounded=0;orthogonalLoop=1;jettySize=auto;html=1;entryX=1;entryY=0.5;entryDx=0;entryDy=0;" edge="1" parent="cfDy6gDimkklNHkqQg3o-1" source="hFvUWZmGQNEbpqs4aMCr-11" target="hFvUWZmGQNEbpqs4aMCr-31">
          <mxGeometry relative="1" as="geometry" />
        </mxCell>
        <mxCell id="hFvUWZmGQNEbpqs4aMCr-33" style="edgeStyle=orthogonalEdgeStyle;rounded=0;orthogonalLoop=1;jettySize=auto;html=1;entryX=0.5;entryY=0;entryDx=0;entryDy=0;" edge="1" parent="cfDy6gDimkklNHkqQg3o-1" source="hFvUWZmGQNEbpqs4aMCr-11" target="hFvUWZmGQNEbpqs4aMCr-30">
          <mxGeometry relative="1" as="geometry" />
        </mxCell>
        <mxCell id="rKmN0OfHLzrts_AOOy3X-2" style="edgeStyle=orthogonalEdgeStyle;rounded=0;orthogonalLoop=1;jettySize=auto;html=1;entryX=0.5;entryY=0;entryDx=0;entryDy=0;exitX=0.75;exitY=0;exitDx=0;exitDy=0;" edge="1" parent="cfDy6gDimkklNHkqQg3o-1" source="hFvUWZmGQNEbpqs4aMCr-11" target="rKmN0OfHLzrts_AOOy3X-0">
          <mxGeometry relative="1" as="geometry">
            <mxPoint x="383" y="177" as="sourcePoint" />
            <mxPoint x="702" y="125" as="targetPoint" />
            <Array as="points">
              <mxPoint x="355" y="176" />
              <mxPoint x="703" y="176" />
            </Array>
          </mxGeometry>
        </mxCell>
        <mxCell id="hFvUWZmGQNEbpqs4aMCr-11" value="Xem danh mục tiện nghi" style="rounded=1;whiteSpace=wrap;html=1;fontSize=12;glass=0;strokeWidth=1;shadow=0;" vertex="1" parent="cfDy6gDimkklNHkqQg3o-1">
          <mxGeometry x="265" y="187" width="120" height="40" as="geometry" />
        </mxCell>
        <mxCell id="hFvUWZmGQNEbpqs4aMCr-17" style="edgeStyle=orthogonalEdgeStyle;rounded=0;orthogonalLoop=1;jettySize=auto;html=1;entryX=0.5;entryY=0;entryDx=0;entryDy=0;" edge="1" parent="cfDy6gDimkklNHkqQg3o-1" source="hFvUWZmGQNEbpqs4aMCr-13" target="hFvUWZmGQNEbpqs4aMCr-16">
          <mxGeometry relative="1" as="geometry" />
        </mxCell>
        <mxCell id="hFvUWZmGQNEbpqs4aMCr-13" value="Xóa tiện nghi" style="rounded=1;whiteSpace=wrap;html=1;fontSize=12;glass=0;strokeWidth=1;shadow=0;" vertex="1" parent="cfDy6gDimkklNHkqQg3o-1">
          <mxGeometry x="419" y="187" width="120" height="40" as="geometry" />
        </mxCell>
        <mxCell id="hFvUWZmGQNEbpqs4aMCr-27" style="edgeStyle=orthogonalEdgeStyle;rounded=0;orthogonalLoop=1;jettySize=auto;html=1;entryX=0;entryY=0.5;entryDx=0;entryDy=0;" edge="1" parent="cfDy6gDimkklNHkqQg3o-1" source="hFvUWZmGQNEbpqs4aMCr-16" target="hFvUWZmGQNEbpqs4aMCr-26">
          <mxGeometry relative="1" as="geometry" />
        </mxCell>
        <mxCell id="hFvUWZmGQNEbpqs4aMCr-16" value="Kiểm tra có phòng liên kết với tiện nghi" style="rhombus;whiteSpace=wrap;html=1;shadow=0;fontFamily=Helvetica;fontSize=12;align=center;strokeWidth=1;spacing=6;spacingTop=-4;" vertex="1" parent="cfDy6gDimkklNHkqQg3o-1">
          <mxGeometry x="429" y="269" width="100" height="80" as="geometry" />
        </mxCell>
        <mxCell id="hFvUWZmGQNEbpqs4aMCr-19" value="Hiển thị phòng đã liên kết" style="rounded=1;whiteSpace=wrap;html=1;fontSize=12;glass=0;strokeWidth=1;shadow=0;" vertex="1" parent="cfDy6gDimkklNHkqQg3o-1">
          <mxGeometry x="421" y="405" width="120" height="40" as="geometry" />
        </mxCell>
        <mxCell id="hFvUWZmGQNEbpqs4aMCr-22" style="edgeStyle=orthogonalEdgeStyle;rounded=0;orthogonalLoop=1;jettySize=auto;html=1;entryX=0.917;entryY=0.975;entryDx=0;entryDy=0;entryPerimeter=0;" edge="1" parent="cfDy6gDimkklNHkqQg3o-1" source="hFvUWZmGQNEbpqs4aMCr-19" target="hFvUWZmGQNEbpqs4aMCr-11">
          <mxGeometry relative="1" as="geometry" />
        </mxCell>
        <mxCell id="hFvUWZmGQNEbpqs4aMCr-24" style="edgeStyle=orthogonalEdgeStyle;rounded=0;orthogonalLoop=1;jettySize=auto;html=1;entryX=0.483;entryY=0.175;entryDx=0;entryDy=0;entryPerimeter=0;" edge="1" parent="cfDy6gDimkklNHkqQg3o-1" source="hFvUWZmGQNEbpqs4aMCr-16" target="hFvUWZmGQNEbpqs4aMCr-19">
          <mxGeometry relative="1" as="geometry" />
        </mxCell>
        <mxCell id="hFvUWZmGQNEbpqs4aMCr-25" value="Có phòng" style="edgeLabel;html=1;align=center;verticalAlign=middle;resizable=0;points=[];" vertex="1" connectable="0" parent="hFvUWZmGQNEbpqs4aMCr-24">
          <mxGeometry x="-0.2375" relative="1" as="geometry">
            <mxPoint as="offset" />
          </mxGeometry>
        </mxCell>
        <mxCell id="hFvUWZmGQNEbpqs4aMCr-29" style="edgeStyle=orthogonalEdgeStyle;rounded=0;orthogonalLoop=1;jettySize=auto;html=1;" edge="1" parent="cfDy6gDimkklNHkqQg3o-1" source="hFvUWZmGQNEbpqs4aMCr-26" target="cfDy6gDimkklNHkqQg3o-4">
          <mxGeometry relative="1" as="geometry" />
        </mxCell>
        <mxCell id="hFvUWZmGQNEbpqs4aMCr-26" value="Xóa tiện nghi" style="rounded=1;whiteSpace=wrap;html=1;fontSize=12;glass=0;strokeWidth=1;shadow=0;" vertex="1" parent="cfDy6gDimkklNHkqQg3o-1">
          <mxGeometry x="560" y="289" width="120" height="40" as="geometry" />
        </mxCell>
        <mxCell id="hFvUWZmGQNEbpqs4aMCr-30" value="Sửa tiện nghi" style="rounded=1;whiteSpace=wrap;html=1;fontSize=12;glass=0;strokeWidth=1;shadow=0;" vertex="1" parent="cfDy6gDimkklNHkqQg3o-1">
          <mxGeometry x="218" y="260" width="120" height="40" as="geometry" />
        </mxCell>
        <mxCell id="hFvUWZmGQNEbpqs4aMCr-39" style="edgeStyle=orthogonalEdgeStyle;rounded=0;orthogonalLoop=1;jettySize=auto;html=1;entryX=1;entryY=0.5;entryDx=0;entryDy=0;" edge="1" parent="cfDy6gDimkklNHkqQg3o-1" source="hFvUWZmGQNEbpqs4aMCr-31" target="hFvUWZmGQNEbpqs4aMCr-34">
          <mxGeometry relative="1" as="geometry" />
        </mxCell>
        <mxCell id="hFvUWZmGQNEbpqs4aMCr-31" value="Thêm tiện nghi" style="rounded=1;whiteSpace=wrap;html=1;fontSize=12;glass=0;strokeWidth=1;shadow=0;" vertex="1" parent="cfDy6gDimkklNHkqQg3o-1">
          <mxGeometry x="74" y="232" width="120" height="40" as="geometry" />
        </mxCell>
        <mxCell id="hFvUWZmGQNEbpqs4aMCr-42" style="edgeStyle=orthogonalEdgeStyle;rounded=0;orthogonalLoop=1;jettySize=auto;html=1;" edge="1" parent="cfDy6gDimkklNHkqQg3o-1" source="hFvUWZmGQNEbpqs4aMCr-34" target="hFvUWZmGQNEbpqs4aMCr-36">
          <mxGeometry relative="1" as="geometry" />
        </mxCell>
        <mxCell id="hFvUWZmGQNEbpqs4aMCr-34" value="Nhập thông tin" style="rounded=1;whiteSpace=wrap;html=1;fontSize=12;glass=0;strokeWidth=1;shadow=0;" vertex="1" parent="cfDy6gDimkklNHkqQg3o-1">
          <mxGeometry x="-41" y="293" width="120" height="40" as="geometry" />
        </mxCell>
        <mxCell id="hFvUWZmGQNEbpqs4aMCr-41" style="edgeStyle=orthogonalEdgeStyle;rounded=0;orthogonalLoop=1;jettySize=auto;html=1;entryX=0.5;entryY=0;entryDx=0;entryDy=0;" edge="1" parent="cfDy6gDimkklNHkqQg3o-1" source="hFvUWZmGQNEbpqs4aMCr-35" target="hFvUWZmGQNEbpqs4aMCr-37">
          <mxGeometry relative="1" as="geometry" />
        </mxCell>
        <mxCell id="hFvUWZmGQNEbpqs4aMCr-35" value="Sửa thông tin" style="rounded=1;whiteSpace=wrap;html=1;fontSize=12;glass=0;strokeWidth=1;shadow=0;" vertex="1" parent="cfDy6gDimkklNHkqQg3o-1">
          <mxGeometry x="187" y="333" width="120" height="40" as="geometry" />
        </mxCell>
        <mxCell id="hFvUWZmGQNEbpqs4aMCr-44" style="edgeStyle=orthogonalEdgeStyle;rounded=0;orthogonalLoop=1;jettySize=auto;html=1;entryX=0.5;entryY=1;entryDx=0;entryDy=0;" edge="1" parent="cfDy6gDimkklNHkqQg3o-1" source="hFvUWZmGQNEbpqs4aMCr-36" target="hFvUWZmGQNEbpqs4aMCr-43">
          <mxGeometry relative="1" as="geometry" />
        </mxCell>
        <mxCell id="hFvUWZmGQNEbpqs4aMCr-45" value="Không hợp lệ" style="edgeLabel;html=1;align=center;verticalAlign=middle;resizable=0;points=[];" vertex="1" connectable="0" parent="hFvUWZmGQNEbpqs4aMCr-44">
          <mxGeometry x="-0.267" y="1" relative="1" as="geometry">
            <mxPoint as="offset" />
          </mxGeometry>
        </mxCell>
        <mxCell id="hFvUWZmGQNEbpqs4aMCr-36" value="Kiểm tra thông tin hợp lệ" style="rhombus;whiteSpace=wrap;html=1;shadow=0;fontFamily=Helvetica;fontSize=12;align=center;strokeWidth=1;spacing=6;spacingTop=-4;" vertex="1" parent="cfDy6gDimkklNHkqQg3o-1">
          <mxGeometry x="-31" y="363" width="100" height="80" as="geometry" />
        </mxCell>
        <mxCell id="hFvUWZmGQNEbpqs4aMCr-50" style="edgeStyle=orthogonalEdgeStyle;rounded=0;orthogonalLoop=1;jettySize=auto;html=1;entryX=0;entryY=1;entryDx=0;entryDy=0;" edge="1" parent="cfDy6gDimkklNHkqQg3o-1" source="hFvUWZmGQNEbpqs4aMCr-37" target="hFvUWZmGQNEbpqs4aMCr-43">
          <mxGeometry relative="1" as="geometry" />
        </mxCell>
        <mxCell id="hFvUWZmGQNEbpqs4aMCr-52" value="Không hợp lệ" style="edgeLabel;html=1;align=center;verticalAlign=middle;resizable=0;points=[];" vertex="1" connectable="0" parent="hFvUWZmGQNEbpqs4aMCr-50">
          <mxGeometry x="-0.7536" relative="1" as="geometry">
            <mxPoint as="offset" />
          </mxGeometry>
        </mxCell>
        <mxCell id="hFvUWZmGQNEbpqs4aMCr-54" style="edgeStyle=orthogonalEdgeStyle;rounded=0;orthogonalLoop=1;jettySize=auto;html=1;entryX=0;entryY=0.75;entryDx=0;entryDy=0;" edge="1" parent="cfDy6gDimkklNHkqQg3o-1">
          <mxGeometry relative="1" as="geometry">
            <mxPoint x="231" y="501" as="sourcePoint" />
            <mxPoint x="343" y="526" as="targetPoint" />
            <Array as="points">
              <mxPoint x="231" y="524" />
              <mxPoint x="312" y="524" />
              <mxPoint x="312" y="526" />
            </Array>
          </mxGeometry>
        </mxCell>
        <mxCell id="hFvUWZmGQNEbpqs4aMCr-55" value="Hợp lệ" style="edgeLabel;html=1;align=center;verticalAlign=middle;resizable=0;points=[];" vertex="1" connectable="0" parent="hFvUWZmGQNEbpqs4aMCr-54">
          <mxGeometry x="0.0657" y="-2" relative="1" as="geometry">
            <mxPoint as="offset" />
          </mxGeometry>
        </mxCell>
        <mxCell id="hFvUWZmGQNEbpqs4aMCr-37" value="Kiểm tra thông tin hợp lệ" style="rhombus;whiteSpace=wrap;html=1;shadow=0;fontFamily=Helvetica;fontSize=12;align=center;strokeWidth=1;spacing=6;spacingTop=-4;" vertex="1" parent="cfDy6gDimkklNHkqQg3o-1">
          <mxGeometry x="181" y="422" width="100" height="80" as="geometry" />
        </mxCell>
        <mxCell id="hFvUWZmGQNEbpqs4aMCr-40" style="edgeStyle=orthogonalEdgeStyle;rounded=0;orthogonalLoop=1;jettySize=auto;html=1;entryX=0.567;entryY=0.025;entryDx=0;entryDy=0;entryPerimeter=0;" edge="1" parent="cfDy6gDimkklNHkqQg3o-1" source="hFvUWZmGQNEbpqs4aMCr-30" target="hFvUWZmGQNEbpqs4aMCr-35">
          <mxGeometry relative="1" as="geometry" />
        </mxCell>
        <mxCell id="hFvUWZmGQNEbpqs4aMCr-51" style="edgeStyle=orthogonalEdgeStyle;rounded=0;orthogonalLoop=1;jettySize=auto;html=1;entryX=0;entryY=0.25;entryDx=0;entryDy=0;" edge="1" parent="cfDy6gDimkklNHkqQg3o-1" source="hFvUWZmGQNEbpqs4aMCr-43" target="hFvUWZmGQNEbpqs4aMCr-11">
          <mxGeometry relative="1" as="geometry">
            <Array as="points">
              <mxPoint x="-118" y="197" />
            </Array>
          </mxGeometry>
        </mxCell>
        <mxCell id="hFvUWZmGQNEbpqs4aMCr-43" value="Báo thông tin không hợp lệ" style="rounded=1;whiteSpace=wrap;html=1;fontSize=12;glass=0;strokeWidth=1;shadow=0;" vertex="1" parent="cfDy6gDimkklNHkqQg3o-1">
          <mxGeometry x="-178" y="229" width="120" height="40" as="geometry" />
        </mxCell>
        <mxCell id="hFvUWZmGQNEbpqs4aMCr-49" style="edgeStyle=orthogonalEdgeStyle;rounded=0;orthogonalLoop=1;jettySize=auto;html=1;entryX=0;entryY=0.5;entryDx=0;entryDy=0;" edge="1" parent="cfDy6gDimkklNHkqQg3o-1" source="hFvUWZmGQNEbpqs4aMCr-46" target="cfDy6gDimkklNHkqQg3o-4">
          <mxGeometry relative="1" as="geometry" />
        </mxCell>
        <mxCell id="hFvUWZmGQNEbpqs4aMCr-46" value="Thực hiện thêm tiện nghi" style="rounded=1;whiteSpace=wrap;html=1;fontSize=12;glass=0;strokeWidth=1;shadow=0;" vertex="1" parent="cfDy6gDimkklNHkqQg3o-1">
          <mxGeometry x="-34" y="546" width="120" height="40" as="geometry" />
        </mxCell>
        <mxCell id="hFvUWZmGQNEbpqs4aMCr-47" style="edgeStyle=orthogonalEdgeStyle;rounded=0;orthogonalLoop=1;jettySize=auto;html=1;entryX=0.45;entryY=0.1;entryDx=0;entryDy=0;entryPerimeter=0;" edge="1" parent="cfDy6gDimkklNHkqQg3o-1" source="hFvUWZmGQNEbpqs4aMCr-36" target="hFvUWZmGQNEbpqs4aMCr-46">
          <mxGeometry relative="1" as="geometry" />
        </mxCell>
        <mxCell id="hFvUWZmGQNEbpqs4aMCr-48" value="Hợp lệ" style="edgeLabel;html=1;align=center;verticalAlign=middle;resizable=0;points=[];" vertex="1" connectable="0" parent="hFvUWZmGQNEbpqs4aMCr-47">
          <mxGeometry x="-0.1961" relative="1" as="geometry">
            <mxPoint as="offset" />
          </mxGeometry>
        </mxCell>
        <mxCell id="hFvUWZmGQNEbpqs4aMCr-56" style="edgeStyle=orthogonalEdgeStyle;rounded=0;orthogonalLoop=1;jettySize=auto;html=1;entryX=0;entryY=0;entryDx=0;entryDy=0;" edge="1" parent="cfDy6gDimkklNHkqQg3o-1" source="hFvUWZmGQNEbpqs4aMCr-53" target="cfDy6gDimkklNHkqQg3o-4">
          <mxGeometry relative="1" as="geometry" />
        </mxCell>
        <mxCell id="hFvUWZmGQNEbpqs4aMCr-53" value="Thực hiện sửa tiện nghi" style="rounded=1;whiteSpace=wrap;html=1;fontSize=12;glass=0;strokeWidth=1;shadow=0;" vertex="1" parent="cfDy6gDimkklNHkqQg3o-1">
          <mxGeometry x="343" y="496" width="120" height="40" as="geometry" />
        </mxCell>
        <mxCell id="rKmN0OfHLzrts_AOOy3X-4" style="edgeStyle=orthogonalEdgeStyle;rounded=0;orthogonalLoop=1;jettySize=auto;html=1;entryX=0.5;entryY=0;entryDx=0;entryDy=0;" edge="1" parent="cfDy6gDimkklNHkqQg3o-1" source="rKmN0OfHLzrts_AOOy3X-0" target="rKmN0OfHLzrts_AOOy3X-3">
          <mxGeometry relative="1" as="geometry" />
        </mxCell>
        <mxCell id="rKmN0OfHLzrts_AOOy3X-0" value="Tìm kiếm tiện nghi" style="rounded=1;whiteSpace=wrap;html=1;fontSize=12;glass=0;strokeWidth=1;shadow=0;" vertex="1" parent="cfDy6gDimkklNHkqQg3o-1">
          <mxGeometry x="643" y="187" width="120" height="40" as="geometry" />
        </mxCell>
        <mxCell id="rKmN0OfHLzrts_AOOy3X-6" style="edgeStyle=orthogonalEdgeStyle;rounded=0;orthogonalLoop=1;jettySize=auto;html=1;entryX=1;entryY=0.5;entryDx=0;entryDy=0;" edge="1" parent="cfDy6gDimkklNHkqQg3o-1" source="rKmN0OfHLzrts_AOOy3X-3" target="cfDy6gDimkklNHkqQg3o-4">
          <mxGeometry relative="1" as="geometry">
            <mxPoint x="703" y="573" as="targetPoint" />
          </mxGeometry>
        </mxCell>
        <mxCell id="rKmN0OfHLzrts_AOOy3X-3" value="HIển thị tiện nghi" style="rounded=1;whiteSpace=wrap;html=1;fontSize=12;glass=0;strokeWidth=1;shadow=0;" vertex="1" parent="cfDy6gDimkklNHkqQg3o-1">
          <mxGeometry x="690" y="388" width="120" height="40" as="geometry" />
        </mxCell>
      </root>
    </mxGraphModel>
  </diagram>
  <diagram name="flowchart quản lý loại phòng" id="CXboYKQSLVp8XA0miUa4">
    <mxGraphModel dx="1556" dy="664" grid="0" gridSize="10" guides="1" tooltips="1" connect="1" arrows="1" fold="1" page="0" pageScale="1" pageWidth="827" pageHeight="1169" math="0" shadow="0">
      <root>
        <mxCell id="k_r_Eqosl4koNzIftEYn-0" />
        <mxCell id="k_r_Eqosl4koNzIftEYn-1" parent="k_r_Eqosl4koNzIftEYn-0" />
        <mxCell id="k_r_Eqosl4koNzIftEYn-2" value="" style="edgeStyle=orthogonalEdgeStyle;rounded=0;orthogonalLoop=1;jettySize=auto;html=1;" edge="1" parent="k_r_Eqosl4koNzIftEYn-1" source="k_r_Eqosl4koNzIftEYn-3" target="k_r_Eqosl4koNzIftEYn-6">
          <mxGeometry relative="1" as="geometry" />
        </mxCell>
        <mxCell id="k_r_Eqosl4koNzIftEYn-3" value="" style="ellipse;html=1;shape=startState;fillColor=#000000;strokeColor=#ff0000;" vertex="1" parent="k_r_Eqosl4koNzIftEYn-1">
          <mxGeometry x="-119" y="130" width="30" height="30" as="geometry" />
        </mxCell>
        <mxCell id="k_r_Eqosl4koNzIftEYn-4" value="" style="ellipse;html=1;shape=endState;fillColor=#000000;strokeColor=#ff0000;" vertex="1" parent="k_r_Eqosl4koNzIftEYn-1">
          <mxGeometry x="605" y="551" width="30" height="30" as="geometry" />
        </mxCell>
        <mxCell id="k_r_Eqosl4koNzIftEYn-5" style="edgeStyle=orthogonalEdgeStyle;rounded=0;orthogonalLoop=1;jettySize=auto;html=1;entryX=0;entryY=0.5;entryDx=0;entryDy=0;" edge="1" parent="k_r_Eqosl4koNzIftEYn-1" source="k_r_Eqosl4koNzIftEYn-6" target="k_r_Eqosl4koNzIftEYn-11">
          <mxGeometry relative="1" as="geometry" />
        </mxCell>
        <mxCell id="k_r_Eqosl4koNzIftEYn-6" value="Đăng nhập" style="rounded=1;whiteSpace=wrap;html=1;fontSize=12;glass=0;strokeWidth=1;shadow=0;" vertex="1" parent="k_r_Eqosl4koNzIftEYn-1">
          <mxGeometry x="-58" y="125" width="120" height="40" as="geometry" />
        </mxCell>
        <mxCell id="k_r_Eqosl4koNzIftEYn-7" style="edgeStyle=orthogonalEdgeStyle;rounded=0;orthogonalLoop=1;jettySize=auto;html=1;entryX=0.5;entryY=0;entryDx=0;entryDy=0;" edge="1" parent="k_r_Eqosl4koNzIftEYn-1" source="k_r_Eqosl4koNzIftEYn-11" target="k_r_Eqosl4koNzIftEYn-3">
          <mxGeometry relative="1" as="geometry">
            <Array as="points">
              <mxPoint x="134" y="64" />
              <mxPoint x="-104" y="64" />
            </Array>
          </mxGeometry>
        </mxCell>
        <mxCell id="k_r_Eqosl4koNzIftEYn-8" value="Là user" style="edgeLabel;html=1;align=center;verticalAlign=middle;resizable=0;points=[];" vertex="1" connectable="0" parent="k_r_Eqosl4koNzIftEYn-7">
          <mxGeometry x="-0.2638" y="5" relative="1" as="geometry">
            <mxPoint as="offset" />
          </mxGeometry>
        </mxCell>
        <mxCell id="k_r_Eqosl4koNzIftEYn-9" value="" style="edgeStyle=orthogonalEdgeStyle;rounded=0;orthogonalLoop=1;jettySize=auto;html=1;" edge="1" parent="k_r_Eqosl4koNzIftEYn-1" source="k_r_Eqosl4koNzIftEYn-11" target="k_r_Eqosl4koNzIftEYn-13">
          <mxGeometry relative="1" as="geometry" />
        </mxCell>
        <mxCell id="k_r_Eqosl4koNzIftEYn-10" value="là admin" style="edgeLabel;html=1;align=center;verticalAlign=middle;resizable=0;points=[];" vertex="1" connectable="0" parent="k_r_Eqosl4koNzIftEYn-9">
          <mxGeometry x="-0.2346" y="4" relative="1" as="geometry">
            <mxPoint as="offset" />
          </mxGeometry>
        </mxCell>
        <mxCell id="k_r_Eqosl4koNzIftEYn-11" value="role tài khoản" style="rhombus;whiteSpace=wrap;html=1;shadow=0;fontFamily=Helvetica;fontSize=12;align=center;strokeWidth=1;spacing=6;spacingTop=-4;" vertex="1" parent="k_r_Eqosl4koNzIftEYn-1">
          <mxGeometry x="84" y="105" width="100" height="80" as="geometry" />
        </mxCell>
        <mxCell id="k_r_Eqosl4koNzIftEYn-12" style="edgeStyle=orthogonalEdgeStyle;rounded=0;orthogonalLoop=1;jettySize=auto;html=1;entryX=0.5;entryY=0;entryDx=0;entryDy=0;" edge="1" parent="k_r_Eqosl4koNzIftEYn-1" source="k_r_Eqosl4koNzIftEYn-13" target="k_r_Eqosl4koNzIftEYn-17">
          <mxGeometry relative="1" as="geometry" />
        </mxCell>
        <mxCell id="k_r_Eqosl4koNzIftEYn-13" value="Chọn quản lý loại phòng" style="rounded=1;whiteSpace=wrap;html=1;fontSize=12;glass=0;strokeWidth=1;shadow=0;" vertex="1" parent="k_r_Eqosl4koNzIftEYn-1">
          <mxGeometry x="265" y="125" width="120" height="40" as="geometry" />
        </mxCell>
        <mxCell id="k_r_Eqosl4koNzIftEYn-14" style="edgeStyle=orthogonalEdgeStyle;rounded=0;orthogonalLoop=1;jettySize=auto;html=1;entryX=0;entryY=0.5;entryDx=0;entryDy=0;" edge="1" parent="k_r_Eqosl4koNzIftEYn-1" source="k_r_Eqosl4koNzIftEYn-17" target="k_r_Eqosl4koNzIftEYn-19">
          <mxGeometry relative="1" as="geometry" />
        </mxCell>
        <mxCell id="k_r_Eqosl4koNzIftEYn-15" style="edgeStyle=orthogonalEdgeStyle;rounded=0;orthogonalLoop=1;jettySize=auto;html=1;entryX=1;entryY=0.5;entryDx=0;entryDy=0;" edge="1" parent="k_r_Eqosl4koNzIftEYn-1" source="k_r_Eqosl4koNzIftEYn-17" target="k_r_Eqosl4koNzIftEYn-30">
          <mxGeometry relative="1" as="geometry" />
        </mxCell>
        <mxCell id="k_r_Eqosl4koNzIftEYn-16" style="edgeStyle=orthogonalEdgeStyle;rounded=0;orthogonalLoop=1;jettySize=auto;html=1;entryX=0.5;entryY=0;entryDx=0;entryDy=0;" edge="1" parent="k_r_Eqosl4koNzIftEYn-1" source="k_r_Eqosl4koNzIftEYn-17" target="k_r_Eqosl4koNzIftEYn-28">
          <mxGeometry relative="1" as="geometry" />
        </mxCell>
        <mxCell id="k_r_Eqosl4koNzIftEYn-17" value="Xem danh mục loại phòng" style="rounded=1;whiteSpace=wrap;html=1;fontSize=12;glass=0;strokeWidth=1;shadow=0;" vertex="1" parent="k_r_Eqosl4koNzIftEYn-1">
          <mxGeometry x="265" y="187" width="120" height="40" as="geometry" />
        </mxCell>
        <mxCell id="k_r_Eqosl4koNzIftEYn-18" style="edgeStyle=orthogonalEdgeStyle;rounded=0;orthogonalLoop=1;jettySize=auto;html=1;entryX=0.5;entryY=0;entryDx=0;entryDy=0;" edge="1" parent="k_r_Eqosl4koNzIftEYn-1" source="k_r_Eqosl4koNzIftEYn-19" target="k_r_Eqosl4koNzIftEYn-21">
          <mxGeometry relative="1" as="geometry" />
        </mxCell>
        <mxCell id="k_r_Eqosl4koNzIftEYn-19" value="Xóa tiện nghi" style="rounded=1;whiteSpace=wrap;html=1;fontSize=12;glass=0;strokeWidth=1;shadow=0;" vertex="1" parent="k_r_Eqosl4koNzIftEYn-1">
          <mxGeometry x="419" y="187" width="120" height="40" as="geometry" />
        </mxCell>
        <mxCell id="k_r_Eqosl4koNzIftEYn-20" style="edgeStyle=orthogonalEdgeStyle;rounded=0;orthogonalLoop=1;jettySize=auto;html=1;entryX=0;entryY=0.5;entryDx=0;entryDy=0;" edge="1" parent="k_r_Eqosl4koNzIftEYn-1" source="k_r_Eqosl4koNzIftEYn-21" target="k_r_Eqosl4koNzIftEYn-27">
          <mxGeometry relative="1" as="geometry" />
        </mxCell>
        <mxCell id="k_r_Eqosl4koNzIftEYn-21" value="Kiểm tra có phòng liên kết với loại phòng" style="rhombus;whiteSpace=wrap;html=1;shadow=0;fontFamily=Helvetica;fontSize=12;align=center;strokeWidth=1;spacing=6;spacingTop=-4;" vertex="1" parent="k_r_Eqosl4koNzIftEYn-1">
          <mxGeometry x="429" y="269" width="100" height="80" as="geometry" />
        </mxCell>
        <mxCell id="k_r_Eqosl4koNzIftEYn-22" value="Hiển thị phòng đã liên kết" style="rounded=1;whiteSpace=wrap;html=1;fontSize=12;glass=0;strokeWidth=1;shadow=0;" vertex="1" parent="k_r_Eqosl4koNzIftEYn-1">
          <mxGeometry x="421" y="405" width="120" height="40" as="geometry" />
        </mxCell>
        <mxCell id="k_r_Eqosl4koNzIftEYn-23" style="edgeStyle=orthogonalEdgeStyle;rounded=0;orthogonalLoop=1;jettySize=auto;html=1;entryX=0.917;entryY=0.975;entryDx=0;entryDy=0;entryPerimeter=0;" edge="1" parent="k_r_Eqosl4koNzIftEYn-1" source="k_r_Eqosl4koNzIftEYn-22" target="k_r_Eqosl4koNzIftEYn-17">
          <mxGeometry relative="1" as="geometry" />
        </mxCell>
        <mxCell id="k_r_Eqosl4koNzIftEYn-24" style="edgeStyle=orthogonalEdgeStyle;rounded=0;orthogonalLoop=1;jettySize=auto;html=1;entryX=0.483;entryY=0.175;entryDx=0;entryDy=0;entryPerimeter=0;" edge="1" parent="k_r_Eqosl4koNzIftEYn-1" source="k_r_Eqosl4koNzIftEYn-21" target="k_r_Eqosl4koNzIftEYn-22">
          <mxGeometry relative="1" as="geometry" />
        </mxCell>
        <mxCell id="k_r_Eqosl4koNzIftEYn-25" value="Có phòng" style="edgeLabel;html=1;align=center;verticalAlign=middle;resizable=0;points=[];" vertex="1" connectable="0" parent="k_r_Eqosl4koNzIftEYn-24">
          <mxGeometry x="-0.2375" relative="1" as="geometry">
            <mxPoint as="offset" />
          </mxGeometry>
        </mxCell>
        <mxCell id="k_r_Eqosl4koNzIftEYn-26" style="edgeStyle=orthogonalEdgeStyle;rounded=0;orthogonalLoop=1;jettySize=auto;html=1;" edge="1" parent="k_r_Eqosl4koNzIftEYn-1" source="k_r_Eqosl4koNzIftEYn-27" target="k_r_Eqosl4koNzIftEYn-4">
          <mxGeometry relative="1" as="geometry" />
        </mxCell>
        <mxCell id="k_r_Eqosl4koNzIftEYn-27" value="Xóa loại phòng" style="rounded=1;whiteSpace=wrap;html=1;fontSize=12;glass=0;strokeWidth=1;shadow=0;" vertex="1" parent="k_r_Eqosl4koNzIftEYn-1">
          <mxGeometry x="560" y="289" width="120" height="40" as="geometry" />
        </mxCell>
        <mxCell id="k_r_Eqosl4koNzIftEYn-28" value="Sửa loại phòng" style="rounded=1;whiteSpace=wrap;html=1;fontSize=12;glass=0;strokeWidth=1;shadow=0;" vertex="1" parent="k_r_Eqosl4koNzIftEYn-1">
          <mxGeometry x="218" y="260" width="120" height="40" as="geometry" />
        </mxCell>
        <mxCell id="k_r_Eqosl4koNzIftEYn-29" style="edgeStyle=orthogonalEdgeStyle;rounded=0;orthogonalLoop=1;jettySize=auto;html=1;entryX=1;entryY=0.5;entryDx=0;entryDy=0;" edge="1" parent="k_r_Eqosl4koNzIftEYn-1" source="k_r_Eqosl4koNzIftEYn-30" target="k_r_Eqosl4koNzIftEYn-32">
          <mxGeometry relative="1" as="geometry" />
        </mxCell>
        <mxCell id="k_r_Eqosl4koNzIftEYn-30" value="Thêm loại phòng" style="rounded=1;whiteSpace=wrap;html=1;fontSize=12;glass=0;strokeWidth=1;shadow=0;" vertex="1" parent="k_r_Eqosl4koNzIftEYn-1">
          <mxGeometry x="74" y="232" width="120" height="40" as="geometry" />
        </mxCell>
        <mxCell id="k_r_Eqosl4koNzIftEYn-31" style="edgeStyle=orthogonalEdgeStyle;rounded=0;orthogonalLoop=1;jettySize=auto;html=1;" edge="1" parent="k_r_Eqosl4koNzIftEYn-1" source="k_r_Eqosl4koNzIftEYn-32" target="k_r_Eqosl4koNzIftEYn-37">
          <mxGeometry relative="1" as="geometry" />
        </mxCell>
        <mxCell id="k_r_Eqosl4koNzIftEYn-32" value="Nhập thông tin" style="rounded=1;whiteSpace=wrap;html=1;fontSize=12;glass=0;strokeWidth=1;shadow=0;" vertex="1" parent="k_r_Eqosl4koNzIftEYn-1">
          <mxGeometry x="-41" y="293" width="120" height="40" as="geometry" />
        </mxCell>
        <mxCell id="k_r_Eqosl4koNzIftEYn-33" style="edgeStyle=orthogonalEdgeStyle;rounded=0;orthogonalLoop=1;jettySize=auto;html=1;entryX=0.5;entryY=0;entryDx=0;entryDy=0;" edge="1" parent="k_r_Eqosl4koNzIftEYn-1" source="k_r_Eqosl4koNzIftEYn-34" target="k_r_Eqosl4koNzIftEYn-42">
          <mxGeometry relative="1" as="geometry" />
        </mxCell>
        <mxCell id="k_r_Eqosl4koNzIftEYn-34" value="Sửa thông tin" style="rounded=1;whiteSpace=wrap;html=1;fontSize=12;glass=0;strokeWidth=1;shadow=0;" vertex="1" parent="k_r_Eqosl4koNzIftEYn-1">
          <mxGeometry x="187" y="333" width="120" height="40" as="geometry" />
        </mxCell>
        <mxCell id="k_r_Eqosl4koNzIftEYn-35" style="edgeStyle=orthogonalEdgeStyle;rounded=0;orthogonalLoop=1;jettySize=auto;html=1;entryX=0.5;entryY=1;entryDx=0;entryDy=0;" edge="1" parent="k_r_Eqosl4koNzIftEYn-1" source="k_r_Eqosl4koNzIftEYn-37" target="k_r_Eqosl4koNzIftEYn-45">
          <mxGeometry relative="1" as="geometry" />
        </mxCell>
        <mxCell id="k_r_Eqosl4koNzIftEYn-36" value="Không hợp lệ" style="edgeLabel;html=1;align=center;verticalAlign=middle;resizable=0;points=[];" vertex="1" connectable="0" parent="k_r_Eqosl4koNzIftEYn-35">
          <mxGeometry x="-0.267" y="1" relative="1" as="geometry">
            <mxPoint as="offset" />
          </mxGeometry>
        </mxCell>
        <mxCell id="k_r_Eqosl4koNzIftEYn-37" value="Kiểm tra thông tin hợp lệ" style="rhombus;whiteSpace=wrap;html=1;shadow=0;fontFamily=Helvetica;fontSize=12;align=center;strokeWidth=1;spacing=6;spacingTop=-4;" vertex="1" parent="k_r_Eqosl4koNzIftEYn-1">
          <mxGeometry x="-31" y="363" width="100" height="80" as="geometry" />
        </mxCell>
        <mxCell id="k_r_Eqosl4koNzIftEYn-38" style="edgeStyle=orthogonalEdgeStyle;rounded=0;orthogonalLoop=1;jettySize=auto;html=1;entryX=0;entryY=1;entryDx=0;entryDy=0;" edge="1" parent="k_r_Eqosl4koNzIftEYn-1" source="k_r_Eqosl4koNzIftEYn-42" target="k_r_Eqosl4koNzIftEYn-45">
          <mxGeometry relative="1" as="geometry" />
        </mxCell>
        <mxCell id="k_r_Eqosl4koNzIftEYn-39" value="Không hợp lệ" style="edgeLabel;html=1;align=center;verticalAlign=middle;resizable=0;points=[];" vertex="1" connectable="0" parent="k_r_Eqosl4koNzIftEYn-38">
          <mxGeometry x="-0.7536" relative="1" as="geometry">
            <mxPoint as="offset" />
          </mxGeometry>
        </mxCell>
        <mxCell id="k_r_Eqosl4koNzIftEYn-40" style="edgeStyle=orthogonalEdgeStyle;rounded=0;orthogonalLoop=1;jettySize=auto;html=1;entryX=0;entryY=0.75;entryDx=0;entryDy=0;" edge="1" parent="k_r_Eqosl4koNzIftEYn-1">
          <mxGeometry relative="1" as="geometry">
            <mxPoint x="231" y="501" as="sourcePoint" />
            <mxPoint x="343" y="526" as="targetPoint" />
            <Array as="points">
              <mxPoint x="231" y="524" />
              <mxPoint x="312" y="524" />
              <mxPoint x="312" y="526" />
            </Array>
          </mxGeometry>
        </mxCell>
        <mxCell id="k_r_Eqosl4koNzIftEYn-41" value="Hợp lệ" style="edgeLabel;html=1;align=center;verticalAlign=middle;resizable=0;points=[];" vertex="1" connectable="0" parent="k_r_Eqosl4koNzIftEYn-40">
          <mxGeometry x="0.0657" y="-2" relative="1" as="geometry">
            <mxPoint as="offset" />
          </mxGeometry>
        </mxCell>
        <mxCell id="k_r_Eqosl4koNzIftEYn-42" value="Kiểm tra thông tin hợp lệ" style="rhombus;whiteSpace=wrap;html=1;shadow=0;fontFamily=Helvetica;fontSize=12;align=center;strokeWidth=1;spacing=6;spacingTop=-4;" vertex="1" parent="k_r_Eqosl4koNzIftEYn-1">
          <mxGeometry x="181" y="422" width="100" height="80" as="geometry" />
        </mxCell>
        <mxCell id="k_r_Eqosl4koNzIftEYn-43" style="edgeStyle=orthogonalEdgeStyle;rounded=0;orthogonalLoop=1;jettySize=auto;html=1;entryX=0.567;entryY=0.025;entryDx=0;entryDy=0;entryPerimeter=0;" edge="1" parent="k_r_Eqosl4koNzIftEYn-1" source="k_r_Eqosl4koNzIftEYn-28" target="k_r_Eqosl4koNzIftEYn-34">
          <mxGeometry relative="1" as="geometry" />
        </mxCell>
        <mxCell id="k_r_Eqosl4koNzIftEYn-44" style="edgeStyle=orthogonalEdgeStyle;rounded=0;orthogonalLoop=1;jettySize=auto;html=1;entryX=0;entryY=0.25;entryDx=0;entryDy=0;" edge="1" parent="k_r_Eqosl4koNzIftEYn-1" source="k_r_Eqosl4koNzIftEYn-45" target="k_r_Eqosl4koNzIftEYn-17">
          <mxGeometry relative="1" as="geometry">
            <Array as="points">
              <mxPoint x="-118" y="197" />
            </Array>
          </mxGeometry>
        </mxCell>
        <mxCell id="k_r_Eqosl4koNzIftEYn-45" value="Báo thông tin không hợp lệ" style="rounded=1;whiteSpace=wrap;html=1;fontSize=12;glass=0;strokeWidth=1;shadow=0;" vertex="1" parent="k_r_Eqosl4koNzIftEYn-1">
          <mxGeometry x="-178" y="229" width="120" height="40" as="geometry" />
        </mxCell>
        <mxCell id="k_r_Eqosl4koNzIftEYn-46" style="edgeStyle=orthogonalEdgeStyle;rounded=0;orthogonalLoop=1;jettySize=auto;html=1;entryX=0;entryY=0.5;entryDx=0;entryDy=0;" edge="1" parent="k_r_Eqosl4koNzIftEYn-1" source="k_r_Eqosl4koNzIftEYn-47" target="k_r_Eqosl4koNzIftEYn-4">
          <mxGeometry relative="1" as="geometry" />
        </mxCell>
        <mxCell id="k_r_Eqosl4koNzIftEYn-47" value="Thực hiện thêm loại phòng" style="rounded=1;whiteSpace=wrap;html=1;fontSize=12;glass=0;strokeWidth=1;shadow=0;" vertex="1" parent="k_r_Eqosl4koNzIftEYn-1">
          <mxGeometry x="-34" y="546" width="120" height="40" as="geometry" />
        </mxCell>
        <mxCell id="k_r_Eqosl4koNzIftEYn-48" style="edgeStyle=orthogonalEdgeStyle;rounded=0;orthogonalLoop=1;jettySize=auto;html=1;entryX=0.45;entryY=0.1;entryDx=0;entryDy=0;entryPerimeter=0;" edge="1" parent="k_r_Eqosl4koNzIftEYn-1" source="k_r_Eqosl4koNzIftEYn-37" target="k_r_Eqosl4koNzIftEYn-47">
          <mxGeometry relative="1" as="geometry" />
        </mxCell>
        <mxCell id="k_r_Eqosl4koNzIftEYn-49" value="Hợp lệ" style="edgeLabel;html=1;align=center;verticalAlign=middle;resizable=0;points=[];" vertex="1" connectable="0" parent="k_r_Eqosl4koNzIftEYn-48">
          <mxGeometry x="-0.1961" relative="1" as="geometry">
            <mxPoint as="offset" />
          </mxGeometry>
        </mxCell>
        <mxCell id="k_r_Eqosl4koNzIftEYn-50" style="edgeStyle=orthogonalEdgeStyle;rounded=0;orthogonalLoop=1;jettySize=auto;html=1;entryX=0;entryY=0;entryDx=0;entryDy=0;" edge="1" parent="k_r_Eqosl4koNzIftEYn-1" source="k_r_Eqosl4koNzIftEYn-51" target="k_r_Eqosl4koNzIftEYn-4">
          <mxGeometry relative="1" as="geometry" />
        </mxCell>
        <mxCell id="k_r_Eqosl4koNzIftEYn-51" value="Thực hiện sửa loại phòng" style="rounded=1;whiteSpace=wrap;html=1;fontSize=12;glass=0;strokeWidth=1;shadow=0;" vertex="1" parent="k_r_Eqosl4koNzIftEYn-1">
          <mxGeometry x="343" y="496" width="120" height="40" as="geometry" />
        </mxCell>
        <mxCell id="J2d5EvM8ne8HjNnAF-nK-3" style="edgeStyle=orthogonalEdgeStyle;rounded=0;orthogonalLoop=1;jettySize=auto;html=1;" edge="1" parent="k_r_Eqosl4koNzIftEYn-1" source="J2d5EvM8ne8HjNnAF-nK-0" target="J2d5EvM8ne8HjNnAF-nK-1">
          <mxGeometry relative="1" as="geometry" />
        </mxCell>
        <mxCell id="J2d5EvM8ne8HjNnAF-nK-0" value="Tìm kiếm tiện nghi" style="rounded=1;whiteSpace=wrap;html=1;fontSize=12;glass=0;strokeWidth=1;shadow=0;" vertex="1" parent="k_r_Eqosl4koNzIftEYn-1">
          <mxGeometry x="620" y="171" width="120" height="40" as="geometry" />
        </mxCell>
        <mxCell id="J2d5EvM8ne8HjNnAF-nK-1" value="HIển thị tiện nghi" style="rounded=1;whiteSpace=wrap;html=1;fontSize=12;glass=0;strokeWidth=1;shadow=0;" vertex="1" parent="k_r_Eqosl4koNzIftEYn-1">
          <mxGeometry x="678" y="351" width="120" height="40" as="geometry" />
        </mxCell>
        <mxCell id="J2d5EvM8ne8HjNnAF-nK-2" style="edgeStyle=orthogonalEdgeStyle;rounded=0;orthogonalLoop=1;jettySize=auto;html=1;entryX=0;entryY=0.5;entryDx=0;entryDy=0;exitX=0.818;exitY=-0.004;exitDx=0;exitDy=0;exitPerimeter=0;" edge="1" parent="k_r_Eqosl4koNzIftEYn-1" source="k_r_Eqosl4koNzIftEYn-17" target="J2d5EvM8ne8HjNnAF-nK-0">
          <mxGeometry relative="1" as="geometry">
            <mxPoint x="395" y="217" as="sourcePoint" />
            <mxPoint x="429" y="217" as="targetPoint" />
            <Array as="points">
              <mxPoint x="363" y="175" />
              <mxPoint x="609" y="175" />
            </Array>
          </mxGeometry>
        </mxCell>
        <mxCell id="J2d5EvM8ne8HjNnAF-nK-4" style="edgeStyle=orthogonalEdgeStyle;rounded=0;orthogonalLoop=1;jettySize=auto;html=1;entryX=0.967;entryY=0.694;entryDx=0;entryDy=0;entryPerimeter=0;" edge="1" parent="k_r_Eqosl4koNzIftEYn-1" source="J2d5EvM8ne8HjNnAF-nK-1" target="k_r_Eqosl4koNzIftEYn-4">
          <mxGeometry relative="1" as="geometry" />
        </mxCell>
      </root>
    </mxGraphModel>
  </diagram>
</mxfile>
